<svg xmlns="http://www.w3.org/2000/svg" xmlns:xlink="http://www.w3.org/1999/xlink" width="253.575" height="253.516" viewBox="0 0 253.575 253.516"><defs><style>.a{fill:#1f2936;}.b{fill:url(#a);}.c{fill:#fff;}</style><linearGradient id="a" x1="0.045" y1="0.023" x2="0.978" y2="1.001" gradientUnits="objectBoundingBox"><stop offset="0" stop-color="#9446db"/><stop offset="1" stop-color="#4b2bdb"/></linearGradient></defs><rect class="a" width="237.607" height="237.607" rx="6.615" transform="translate(7.954 7.954)"/><path class="b" d="M3455.173,2324.8H3251.307A24.9,24.9,0,0,1,3226.451,2300V2096.132a24.9,24.9,0,0,1,24.856-24.853h203.866a24.886,24.886,0,0,1,24.853,24.853V2300A24.9,24.9,0,0,1,3455.173,2324.8Zm-203.866-237.607a8.963,8.963,0,0,0-8.947,8.944V2300a8.97,8.97,0,0,0,8.947,8.97h203.866a8.971,8.971,0,0,0,8.9-8.97V2096.132a8.966,8.966,0,0,0-8.9-8.944Z" transform="translate(-3226.451 -2071.279)"/><path class="c" d="M3302.3,2102.783c-8.124,13.926-16.154,27.878-24.245,41.822a2.208,2.208,0,0,0,0,2.542c2.026,3.387,3.948,6.776,5.93,10.207,2.125,3.66,4.312,7.311,6.521,11.276l38.716-67.068a7.058,7.058,0,0,0-.917-.168h-24.022a2.786,2.786,0,0,0-1.991,1.346Z" transform="translate(-3146.849 -2024.458)"/><path class="c" d="M3269.846,2183.071c8.106-13.918,16.147-27.888,24.238-41.825a2.2,2.2,0,0,0,0-2.583c-2.026-3.388-3.958-6.778-5.93-10.206-2.128-3.661-4.312-7.312-6.524-11.284l-38.713,67.073a6.647,6.647,0,0,0,.914.171h24.025A2.821,2.821,0,0,0,3269.846,2183.071Z" transform="translate(-3200.849 -1999.924)"/><path class="c" d="M3304.859,2144.494q-12.09-20.8-24.091-41.671a2.365,2.365,0,0,0-2.4-1.441H3255.5a12.327,12.327,0,0,0-1.755.1l38.8,67.237c4.236-7.183,8.241-14.4,12.35-21.3a2.492,2.492,0,0,0,0-2.923Z" transform="translate(-3184.018 -2024.49)"/><path class="c" d="M3288.945,2141.4q12.086,20.8,24.082,41.668a2.374,2.374,0,0,0,2.4,1.441H3338.3a12.185,12.185,0,0,0,1.755-.1l-38.8-67.235c-4.235,7.182-8.233,14.4-12.341,21.3a2.492,2.492,0,0,0,0,2.923Z" transform="translate(-3130.075 -1999.929)"/><path class="c" d="M3290.11,2095.3a11.374,11.374,0,0,0-14.12-.087,10.865,10.865,0,0,0-3.39,13.472c3.145,6.047,6.726,11.917,10.327,18.188,3.592-6.219,7.133-12.013,10.37-17.96a11.214,11.214,0,0,0-3.187-13.611Z" transform="translate(-3156.359 -2037.822)"/><path class="c" d="M3283.513,2157.126a11.275,11.275,0,0,0,10.171-12.281l-.006-.036a11.374,11.374,0,0,0-1.506-4.642c-1.438-2.711-3.091-5.389-4.643-8.089s-3.234-5.567-5.015-8.625c-3.508,6.15-7.192,11.86-10.063,17.95a11.122,11.122,0,0,0,11.1,15.722Z" transform="translate(-3156.514 -1990.161)"/></svg>